<mxfile host="65bd71144e">
    <diagram name="PÃ¡gina-1" id="ALx62lyxkIDHnWmLr0GI">
        <mxGraphModel dx="1450" dy="779" grid="1" gridSize="10" guides="1" tooltips="1" connect="1" arrows="1" fold="1" page="1" pageScale="1" pageWidth="827" pageHeight="1169" math="0" shadow="0">
            <root>
                <mxCell id="0"/>
                <mxCell id="1" parent="0"/>
                <mxCell id="A0b0nIGVs_FZavPGswaE-1" value="" style="endArrow=none;html=1;rounded=0;" parent="1" edge="1">
                    <mxGeometry width="50" height="50" relative="1" as="geometry">
                        <mxPoint x="230" y="620" as="sourcePoint"/>
                        <mxPoint x="230" y="220" as="targetPoint"/>
                    </mxGeometry>
                </mxCell>
                <mxCell id="A0b0nIGVs_FZavPGswaE-2" value="" style="endArrow=none;html=1;rounded=0;" parent="1" edge="1">
                    <mxGeometry width="50" height="50" relative="1" as="geometry">
                        <mxPoint x="230" y="620" as="sourcePoint"/>
                        <mxPoint x="630" y="620" as="targetPoint"/>
                    </mxGeometry>
                </mxCell>
                <mxCell id="A0b0nIGVs_FZavPGswaE-4" value="Value" style="text;strokeColor=none;fillColor=none;html=1;fontSize=24;fontStyle=1;verticalAlign=middle;align=center;" parent="1" vertex="1">
                    <mxGeometry x="120" y="580" width="100" height="40" as="geometry"/>
                </mxCell>
                <mxCell id="A0b0nIGVs_FZavPGswaE-5" value="Time" style="text;strokeColor=none;fillColor=none;html=1;fontSize=24;fontStyle=1;verticalAlign=middle;align=center;" parent="1" vertex="1">
                    <mxGeometry x="230" y="620" width="100" height="40" as="geometry"/>
                </mxCell>
                <mxCell id="A0b0nIGVs_FZavPGswaE-6" value="chat" style="ellipse;whiteSpace=wrap;html=1;aspect=fixed;" parent="1" vertex="1">
                    <mxGeometry x="540" y="260" width="40" height="40" as="geometry"/>
                </mxCell>
                <mxCell id="A0b0nIGVs_FZavPGswaE-7" value="" style="shape=flexArrow;endArrow=classic;html=1;rounded=0;" parent="1" edge="1">
                    <mxGeometry width="50" height="50" relative="1" as="geometry">
                        <mxPoint x="260" y="670" as="sourcePoint"/>
                        <mxPoint x="330" y="670" as="targetPoint"/>
                    </mxGeometry>
                </mxCell>
                <mxCell id="A0b0nIGVs_FZavPGswaE-8" value="" style="shape=flexArrow;endArrow=classic;html=1;rounded=0;" parent="1" edge="1">
                    <mxGeometry width="50" height="50" relative="1" as="geometry">
                        <mxPoint x="210" y="610" as="sourcePoint"/>
                        <mxPoint x="210" y="540" as="targetPoint"/>
                    </mxGeometry>
                </mxCell>
                <mxCell id="A0b0nIGVs_FZavPGswaE-9" value="" style="html=1;whiteSpace=wrap;shape=isoCube2;backgroundOutline=1;isoAngle=15;" parent="1" vertex="1">
                    <mxGeometry x="230" y="200" width="10" height="420" as="geometry"/>
                </mxCell>
                <mxCell id="A0b0nIGVs_FZavPGswaE-10" value="" style="html=1;whiteSpace=wrap;shape=isoCube2;backgroundOutline=1;isoAngle=15;rotation=90;" parent="1" vertex="1">
                    <mxGeometry x="428.12" y="415.63" width="10" height="408.75" as="geometry"/>
                </mxCell>
                <mxCell id="A0b0nIGVs_FZavPGswaE-11" value="" style="endArrow=none;html=1;rounded=0;exitX=-0.314;exitY=0.471;exitDx=0;exitDy=0;exitPerimeter=0;" parent="1" source="A0b0nIGVs_FZavPGswaE-9" edge="1">
                    <mxGeometry width="50" height="50" relative="1" as="geometry">
                        <mxPoint x="310" y="420" as="sourcePoint"/>
                        <mxPoint x="640" y="401" as="targetPoint"/>
                    </mxGeometry>
                </mxCell>
                <mxCell id="A0b0nIGVs_FZavPGswaE-12" value="" style="endArrow=none;html=1;rounded=0;exitX=0.3;exitY=0.483;exitDx=0;exitDy=0;exitPerimeter=0;" parent="1" source="A0b0nIGVs_FZavPGswaE-10" edge="1">
                    <mxGeometry width="50" height="50" relative="1" as="geometry">
                        <mxPoint x="439" y="610" as="sourcePoint"/>
                        <mxPoint x="439" y="200" as="targetPoint"/>
                    </mxGeometry>
                </mxCell>
            </root>
        </mxGraphModel>
    </diagram>
</mxfile>